<?xml version="1.0" standalone="no"?>
<!DOCTYPE svg PUBLIC "-//W3C//DTD SVG 20010904//EN"
 "http://www.w3.org/TR/2001/REC-SVG-20010904/DTD/svg10.dtd">
<svg version="1.0" xmlns="http://www.w3.org/2000/svg"
 width="1088.000000pt" height="1088.000000pt" viewBox="0 0 1088.000000 1088.000000"
 preserveAspectRatio="xMidYMid meet">
<metadata>
Created by potrace 1.14, written by Peter Selinger 2001-2017
</metadata>
<g transform="translate(0.000000,1088.000000) scale(0.100000,-0.100000)"
fill="#000000" stroke="none">
<path d="M1239 8075 c-1 0 -2 -1284 -3 -2852 -1 -1922 2 -2854 9 -2856 5 -2
759 -3 1675 -3 l1665 1 0 400 0 400 -1180 0 c-801 1 -1182 -3 -1187 -10 -5 -6
-8 -5 -8 3 0 7 -4 11 -8 8 -35 -21 -34 -53 -34 2458 0 1345 -3 2446 -7 2447
-4 1 -758 4 -922 4z"/>
<path d="M5837 8065 c-2 -5 -3 -1290 -2 -2855 l0 -2845 1115 1 c1001 0 1269 4
1350 19 14 2 45 6 70 9 25 3 54 7 65 9 11 3 40 8 65 11 25 4 74 14 109 22 36
9 74 18 84 20 31 6 221 68 227 74 3 3 12 6 20 8 8 2 43 17 78 33 35 16 68 29
73 29 5 0 9 5 9 11 0 5 4 8 9 5 5 -4 11 -3 13 1 1 5 28 21 58 37 30 16 61 36
68 45 7 9 16 16 20 15 7 -1 52 25 62 36 3 3 25 21 50 40 61 46 270 259 270
275 0 2 18 31 40 64 23 34 59 98 82 143 41 82 102 248 91 248 -3 0 -1 6 5 13
5 6 13 28 16 47 4 19 9 46 11 60 3 14 7 39 10 55 2 17 7 46 11 65 14 77 7 474
-11 555 -3 17 -8 41 -9 55 -2 14 -9 45 -15 70 -82 310 -263 553 -526 707 -77
45 -240 117 -330 145 -29 9 -40 12 -87 24 -40 9 -43 10 -63 17 -11 3 -37 8
-59 12 -21 3 -43 8 -48 11 -14 9 -5 37 12 40 8 2 24 5 35 8 11 3 40 10 65 16
71 17 194 62 202 74 4 6 8 7 8 3 0 -8 149 68 160 82 3 3 24 19 48 35 80 55
242 225 242 255 0 6 4 11 10 11 11 0 128 232 135 268 2 12 7 27 10 32 3 5 8
18 10 28 1 9 8 36 15 60 6 24 13 55 15 70 29 216 32 282 20 457 -8 120 -49
319 -75 367 -6 10 -10 27 -10 38 0 11 -4 20 -10 20 -5 0 -10 6 -10 14 0 29
-87 178 -149 256 -44 55 -127 138 -165 165 -16 11 -34 25 -40 32 -53 49 -308
184 -374 198 -10 2 -34 11 -54 19 -21 9 -38 13 -38 10 0 -4 -6 -2 -13 4 -7 6
-25 13 -40 16 -15 3 -51 11 -80 20 -48 13 -152 36 -187 41 -8 2 -31 6 -50 9
-19 4 -46 9 -60 11 -78 10 -129 17 -160 21 -63 10 -203 21 -355 30 -188 11
-2044 10 -2048 -1z m1988 -779 c33 -2 60 -5 60 -6 0 -1 29 -3 65 -6 36 -2 72
-7 80 -10 8 -3 37 -8 64 -11 27 -2 61 -9 74 -14 14 -5 41 -12 61 -15 77 -13
265 -98 327 -149 42 -34 114 -111 114 -121 0 -6 7 -15 16 -18 8 -3 13 -10 10
-15 -4 -5 -3 -11 2 -13 11 -4 52 -94 52 -112 0 -8 4 -17 8 -20 4 -2 9 -19 10
-37 1 -17 5 -37 9 -42 4 -6 8 -22 9 -36 4 -42 4 -234 0 -261 -8 -56 -17 -107
-20 -125 -7 -36 -38 -120 -48 -132 -6 -7 -8 -13 -4 -13 10 0 -64 -112 -101
-154 -18 -20 -35 -36 -37 -36 -3 0 -16 -10 -29 -22 -43 -40 -189 -110 -277
-133 -61 -17 -100 -26 -130 -31 -19 -3 -46 -7 -60 -10 -40 -7 -112 -15 -150
-17 -19 -2 -40 -6 -47 -10 -6 -4 -14 -3 -17 2 -3 5 -21 6 -38 2 -18 -4 -262
-7 -543 -6 l-510 0 -3 784 c-1 464 2 787 7 790 10 7 948 4 1046 -3z m182
-2339 c29 -1 53 -4 53 -7 0 -3 8 -6 18 -6 52 -2 228 -40 308 -68 275 -93 446
-256 520 -493 14 -48 17 -61 32 -163 12 -82 6 -252 -12 -360 -34 -199 -154
-392 -311 -500 -84 -58 -296 -145 -380 -156 -11 -1 -33 -5 -50 -8 -16 -4 -43
-8 -60 -11 -16 -3 -48 -8 -70 -12 -22 -3 -320 -8 -662 -10 l-623 -4 0 904 0
904 593 -4 c325 -2 616 -5 644 -6z"/>
<path d="M1099 1680 c-5 -17 -4 -390 0 -391 3 -1 40 -3 81 -4 41 -2 75 -4 75
-5 0 -5 46 -6 50 0 5 8 127 6 142 -3 6 -4 14 -4 17 1 6 10 127 9 143 -1 6 -4
14 -4 17 1 6 10 127 9 143 -1 6 -4 14 -4 17 1 4 7 201 8 216 2 3 -1 10 -1 15
0 26 6 173 5 192 -2 12 -4 24 -4 27 0 4 6 136 8 161 2 6 -1 12 -1 15 0 16 6
140 4 140 -3 0 -5 5 -5 12 -1 16 10 99 12 125 3 12 -5 24 -5 27 -1 4 6 136 8
161 2 6 -1 12 -1 15 0 15 6 140 4 140 -3 0 -4 8 -4 18 1 17 8 81 8 140 -1 18
-2 34 -1 36 2 6 9 128 7 143 -2 6 -4 14 -4 17 1 6 10 127 9 143 -1 6 -4 14 -4
17 1 6 10 127 9 143 -1 6 -4 14 -4 17 1 6 10 237 8 254 -2 7 -4 12 -3 12 1 0
4 37 7 83 6 45 -2 87 -3 92 -3 6 0 45 1 88 2 43 2 81 0 84 -5 2 -4 9 -4 15 -1
18 12 138 11 138 -1 0 -6 3 -7 8 0 8 12 121 13 140 2 6 -5 12 -4 12 0 0 5 26
8 58 7 58 -2 87 10 75 29 -10 16 -10 147 0 147 4 0 4 8 -1 18 -4 9 -8 59 -7
110 1 50 -1 92 -4 93 -3 1 -156 2 -339 3 -215 1 -332 -3 -332 -9 0 -7 -3 -7
-8 0 -7 10 -2971 15 -2973 5z"/>
</g>
</svg>
